<svg xmlns="http://www.w3.org/2000/svg" viewBox="0 0 512 512">
  <defs>
    <linearGradient id="shieldGrad" x1="0%" y1="0%" x2="100%" y2="100%">
      <stop offset="0%" style="stop-color:#00e87a"/>
      <stop offset="100%" style="stop-color:#00c460"/>
    </linearGradient>
  </defs>
  <!-- Shield background -->
  <path d="M256 10 C340 10 420 50 460 120 C480 155 490 195 485 240 C475 310 430 380 256 500 C82 380 37 310 27 240 C22 195 32 155 52 120 C92 50 172 10 256 10Z" fill="url(#shieldGrad)"/>
  <!-- Navy F -->
  <path d="M140 120 L330 120 L330 165 L195 165 L195 210 L310 210 L310 255 L195 255 L195 380 L140 380 Z" fill="#0a1838"/>
  <!-- Fusion text -->
  <text x="256" y="440" text-anchor="middle" font-family="Arial Black, Arial, sans-serif" font-weight="900" font-size="56" fill="#00d66f" letter-spacing="4">FUSION</text>
  <!-- Sports text -->
  <text x="256" y="480" text-anchor="middle" font-family="Arial, sans-serif" font-weight="400" font-size="28" fill="#0a1838" font-style="italic" letter-spacing="8">SPORTS</text>
</svg>